<?xml version="1.0" encoding="utf-8"?>
<!-- Generator: Adobe Illustrator 13.0.0, SVG Export Plug-In . SVG Version: 6.00 Build 14948)  -->
<!DOCTYPE svg PUBLIC "-//W3C//DTD SVG 1.1//EN" "http://www.w3.org/Graphics/SVG/1.1/DTD/svg11.dtd">
<svg version="1.1" id="Layer_1" xmlns="http://www.w3.org/2000/svg" xmlns:xlink="http://www.w3.org/1999/xlink" x="0px" y="0px"
	 width="51px" height="51px" viewBox="0 0 51 51" enable-background="new 0 0 51 51" xml:space="preserve">
<g>
	<g>
		<path fill="#949494" d="M25.5,51c-6.913,0.021-13.164-2.599-18.068-7.531l0,0C2.502,38.582-0.031,32.474,0,25.5l0,0
			c-0.025-6.972,2.479-13.249,7.451-18.188l0,0C11.768,3.066,17.106,0.625,23,0.105l0,0V0h2.365c0.045,0,0.09,0,0.135,0l0,0
			c0.155,0,0.309,0,0.463,0.002l0,0H28v0.101c5.949,0.515,11.236,2.967,15.469,7.229l0,0C48.402,12.236,51.023,18.498,51,25.5l0,0
			c0.029,7.005-2.62,13.098-7.512,17.947l0,0C38.713,48.369,32.566,51,25.609,51l0,0C25.573,51,25.536,51,25.5,51L25.5,51z
			 M10.968,10.867C6.921,14.947,5.024,19.67,5,25.5l0,0c0.029,5.826,1.896,10.316,5.968,14.431l0,0
			C15.063,43.998,19.812,45.979,25.5,46l0,0c5.798-0.025,10.412-1.994,14.432-6.068l0,0c4.09-4.129,6.039-8.639,6.068-14.431l0,0
			c-0.023-5.799-2.005-10.537-6.068-14.633l0,0C35.948,6.917,31.33,5.025,25.5,5l0,0C19.781,5.021,15.029,6.925,10.968,10.867
			L10.968,10.867z"/>
	</g>
	<g>
		<path fill="#949494" d="M23.401,18.3h4.3v2.1h10.5v-6.399h-25.3V20.4h10.5V18.3z"/>
		<path fill="#949494" d="M23.401,26.601h4.3v2.1h10.5v-6.5h-25.3v6.5h10.5V26.601z"/>
		<path fill="#949494" d="M23.401,34.9h4.3v2.2h10.5v-6.5h-25.3v6.5h10.5V34.9z"/>
	</g>
</g>
</svg>
