<?xml version="1.0" encoding="utf-8"?>
<!-- Generator: Adobe Illustrator 13.0.0, SVG Export Plug-In . SVG Version: 6.00 Build 14948)  -->
<!DOCTYPE svg PUBLIC "-//W3C//DTD SVG 1.1//EN" "http://www.w3.org/Graphics/SVG/1.1/DTD/svg11.dtd">
<svg version="1.1" id="Layer_1" xmlns="http://www.w3.org/2000/svg" xmlns:xlink="http://www.w3.org/1999/xlink" x="0px" y="0px"
	 width="51px" height="51px" viewBox="0 0 51 51" enable-background="new 0 0 51 51" xml:space="preserve">
<g>
	<g>
		<polygon fill="#B01919" points="13.533,17.067 17.068,13.53 27.269,23.73 23.733,27.268 		"/>
		<polygon fill="#B01919" points="23.733,27.268 27.27,23.73 37.47,33.931 33.933,37.468 		"/>
		<polygon fill="#B01919" points="23.732,23.731 33.934,13.53 37.47,17.066 27.269,27.267 		"/>
		<polygon fill="#B01919" points="13.533,33.931 23.733,23.73 27.27,27.268 17.069,37.468 		"/>
	</g>
	<g>
		<path fill="#B01919" d="M7.454,43.486C2.479,38.652-0.021,32.378,0,25.5l0,0c-0.021-6.136,1.917-11.735,5.76-16.344l0,0
			L5.666,9.061l1.788-1.749l1.747-1.747l0.093,0.093C13.864,1.912,19.374-0.021,25.502,0l0,0c6.879-0.021,13.134,2.472,17.967,7.332
			l0,0C48.405,12.236,51.024,18.499,51,25.5l0,0c0.021,6.91-2.594,13.169-7.494,17.928l0,0C38.672,48.515,32.379,51.024,25.502,51
			l0,0c-0.04,0-0.079,0-0.119,0l0,0C18.459,51,12.291,48.474,7.454,43.486L7.454,43.486z M5.001,25.5
			c0.021,5.721,1.922,10.444,5.986,14.451l0,0c4.099,4.146,8.687,6.02,14.515,6.049l0,0c5.721-0.024,10.427-1.916,14.452-6.088l0,0
			C43.997,35.93,45.98,31.189,46,25.5l0,0c-0.021-5.799-2.004-10.537-6.066-14.633l0,0C35.967,6.927,31.221,5.019,25.502,5l0,0
			c-5.826,0.024-10.454,1.915-14.552,5.888l0,0l-0.052,0.051C6.9,15.002,5.024,19.704,5.001,25.5L5.001,25.5z"/>
	</g>
</g>
</svg>
