<?xml version="1.0" encoding="utf-8"?>
<!-- Generator: Adobe Illustrator 13.0.0, SVG Export Plug-In . SVG Version: 6.00 Build 14948)  -->
<!DOCTYPE svg PUBLIC "-//W3C//DTD SVG 1.1//EN" "http://www.w3.org/Graphics/SVG/1.1/DTD/svg11.dtd">
<svg version="1.1" id="Layer_1" xmlns="http://www.w3.org/2000/svg" xmlns:xlink="http://www.w3.org/1999/xlink" x="0px" y="0px"
	 width="66.32px" height="111px" viewBox="0 0 66.32 111" enable-background="new 0 0 66.32 111" xml:space="preserve">
<g>
	<path fill="#93C8FE" d="M11.105,37.379c-3.944,0-5.844,2.045-5.844,5.843v50.103L23.668,111h28.63c3.943,0,5.988-1.898,5.988-5.844
		V43.222c0-3.798-2.045-5.843-5.988-5.843H11.105z"/>
</g>
<g>
	<g>
		<path fill="#666666" d="M34.477,80.618c3.799,0.438,6.427-0.729,7.741-3.652c-2.481,1.313-4.819,1.021-6.572-0.877
			c-1.899-1.897-4.383-2.337-7.742-1.606C28.487,78.426,30.678,80.325,34.477,80.618z"/>
		<path fill="#666666" d="M20.162,76.088c-1.753,1.898-3.944,2.191-6.573,0.877c1.315,2.922,3.942,4.09,7.741,3.652
			c3.799-0.293,5.99-2.191,6.573-6.137C24.689,73.751,22.061,74.189,20.162,76.088z"/>
	</g>
	<g>
		<path fill="#666666" d="M18.409,107.641V95.809c-0.005-1.758-0.423-2.828-1.034-3.463l0,0c-0.613-0.631-1.61-1.059-3.35-1.066l0,0
			H1.464C0.654,91.279,0,90.625,0,89.818l0,0c0-0.807,0.654-1.461,1.464-1.461l0,0h12.563c2.205-0.008,4.13,0.588,5.453,1.963l0,0
			c1.317,1.373,1.854,3.299,1.852,5.488l0,0v11.832c0,0.805-0.652,1.461-1.461,1.461l0,0
			C19.061,109.102,18.409,108.445,18.409,107.641L18.409,107.641z"/>
		<path fill="#666666" d="M53.028,87.482v-4.676c0-0.807,0.652-1.461,1.459-1.461l0,0c0.808,0,1.463,0.654,1.463,1.461l0,0v4.676
			c0,0.808-0.655,1.459-1.463,1.459l0,0C53.681,88.941,53.028,88.29,53.028,87.482L53.028,87.482z"/>
		<path fill="#666666" d="M53.028,65.279V39.715c-0.009-1.652-0.431-2.661-1.08-3.304l0,0c-0.65-0.639-1.713-1.073-3.45-1.076l0,0
			H14.757c-0.808,0-1.462-0.655-1.462-1.463l0,0c0-0.807,0.654-1.458,1.462-1.458l0,0h33.741c2.209-0.006,4.141,0.581,5.497,1.915
			l0,0c1.358,1.331,1.962,3.243,1.952,5.387l0,0l0.003,25.563c0,0.808-0.655,1.46-1.463,1.46l0,0
			C53.681,66.739,53.028,66.086,53.028,65.279L53.028,65.279z"/>
		<path fill="#666666" d="M18.407,107.641c0-0.809,0.655-1.463,1.462-1.463l0,0h28.629c1.737-0.003,2.8-0.438,3.45-1.076l0,0
			c0.649-0.643,1.071-1.651,1.08-3.304l0,0v-9.644c0-0.803,0.655-1.459,1.459-1.459l0,0c0.805,0,1.46,0.656,1.46,1.459l0,0v9.644
			c0.01,2.144-0.594,4.056-1.952,5.386l0,0c-1.356,1.334-3.288,1.922-5.497,1.916l0,0l-28.629,0.002
			C19.063,109.102,18.407,108.449,18.407,107.641L18.407,107.641z"/>
		<path fill="#666666" d="M18.851,108.689L0.445,90.868c-0.58-0.563-0.596-1.486-0.033-2.065l0,0
			c0.562-0.58,1.485-0.595,2.068-0.033l0,0l18.403,17.822c0.578,0.563,0.597,1.485,0.031,2.065l0,0
			c-0.285,0.297-0.666,0.444-1.047,0.444l0,0C19.503,109.102,19.137,108.965,18.851,108.689L18.851,108.689z"/>
		<path fill="#666666" d="M0,89.818l0.003-50.103c-0.006-2.146,0.594-4.057,1.952-5.389l0,0c1.357-1.332,3.29-1.92,5.498-1.914l0,0
			h1.753c0.806,0,1.46,0.652,1.46,1.459l0,0c0,0.805-0.654,1.46-1.46,1.46l0,0H7.453c-1.736,0.006-2.8,0.439-3.452,1.079l0,0
			c-0.647,0.64-1.071,1.648-1.078,3.304l0,0v50.104h0.003c0,0.809-0.655,1.463-1.464,1.463l0,0C0.654,91.282,0,90.627,0,89.818
			L0,89.818z"/>
	</g>
	<g>
		<path fill="#666666" d="M23.813,57.684c0,3.797,1.314,7.012,4.09,9.787c2.629,2.629,5.843,4.09,9.787,4.09
			c3.213,0,5.988-1.022,8.473-2.922l2.921,2.775c-0.146,0.146,0,0.292,0,0.438c-0.146,0.877,0.293,1.754,1.022,2.483l10.226,10.371
			c0.73,0.729,1.606,1.022,2.629,1.022c0.73,0,1.607-0.293,2.338-1.022c0.584-0.729,1.021-1.46,1.021-2.481
			c0-0.877-0.438-1.754-1.168-2.483L54.927,69.37c-0.729-0.729-1.46-1.022-2.482-1.022h-0.438l-2.922-2.922
			c1.607-2.189,2.483-4.82,2.483-7.742l0,0c0-3.942-1.315-7.157-4.091-9.933c-2.774-2.63-5.988-3.944-9.786-3.944
			c-3.944,0-7.158,1.314-9.787,3.944C25.274,50.526,23.813,53.74,23.813,57.684z M30.825,50.672c1.898-1.753,4.09-2.775,6.865-2.775
			c2.629,0,4.819,1.022,6.719,2.921c2.046,1.898,2.922,4.236,2.922,6.866c0,2.482-0.876,4.674-2.481,6.572h-0.146
			c0,0,0,0.146-0.146,0.293c-2.044,1.898-4.235,2.775-6.864,2.775c-2.775,0-4.967-0.877-6.865-2.775
			c-1.897-2.045-2.922-4.236-2.922-6.865l0,0C27.903,54.909,28.927,52.571,30.825,50.672z"/>
	</g>
	<g>
		<path fill="#666666" d="M20.993,62.865c-1.824-1.139-3.647-1.739-5.537-1.742l0,0c-0.327,0-0.649,0.02-0.965,0.055l0,0
			c-0.803,0.096-1.529-0.476-1.623-1.277l0,0c-0.097-0.799,0.478-1.528,1.278-1.623l0,0c0.441-0.051,0.879-0.072,1.31-0.076l0,0
			c2.532,0,4.914,0.83,7.084,2.188l0,0h0.003c0.684,0.428,0.891,1.332,0.463,2.014l0,0c-0.276,0.443-0.754,0.687-1.239,0.687l0,0
			C21.501,63.086,21.233,63.016,20.993,62.865L20.993,62.865z"/>
		<path fill="#666666" d="M36.083,63.234v-5.844c0-0.807,0.653-1.458,1.461-1.458l0,0c0.807,0,1.464,0.652,1.464,1.458l0,0v5.844
			c0,0.808-0.657,1.461-1.464,1.461l0,0C36.736,64.695,36.083,64.042,36.083,63.234L36.083,63.234z"/>
	</g>
	<g>
		<path fill="#666666" d="M26.15,8.019c0.146-0.877,0-1.899-0.146-2.922c-0.438-1.168-1.021-2.191-2.046-3.213
			c-1.021-0.876-2.189-1.461-3.797-1.607c-1.461-0.438-3.214-0.292-4.822,0c-1.896,0.584-3.504,1.46-4.526,2.629
			C9.497,3.929,8.621,5.243,8.33,6.558c-0.438,1.461-0.438,2.63-0.146,3.798c0.146,0.584,0.438,1.023,1.168,1.315
			c0.585,0.292,1.17,0.438,1.754,0.292c1.168-0.292,1.753-1.314,1.753-2.629c0.146-1.314,0.438-2.483,0.876-3.359
			c0.438-0.877,1.314-1.461,2.63-1.899c1.021-0.146,2.045-0.146,2.922,0.292c1.021,0.438,1.606,1.169,1.752,2.191
			c0.146,0.438,0.146,1.023,0,1.461c0,0.438-0.291,1.022-0.438,1.46c-0.292,0.292-0.73,1.023-1.313,1.899
			c-0.585,1.022-1.17,1.752-1.606,2.483c-0.293,0.73-0.584,1.46-0.73,2.191c0,0.877,0,1.753,0.292,2.921
			c0.146,0.73,0.585,1.169,1.169,1.461c0.438,0.292,1.022,0.438,1.753,0.292c1.168-0.292,1.606-1.169,1.606-2.483
			c0-0.73,0-1.022,0-1.168c0-0.292,0-0.73,0-0.876c0-0.292,0.292-0.584,0.292-0.877c0.292-0.438,0.438-0.73,0.729-1.314
			c1.168-1.607,1.898-2.921,2.338-3.505C25.42,9.771,25.859,8.895,26.15,8.019z"/>
		<path fill="#666666" d="M40.319,7.872c0.729,0.146,1.169,0.585,1.461,1.169c0.438,0.438,0.438,0.877,0.293,1.461
			c0,0.438-0.293,0.73-0.439,0.876c-0.146,0.292-0.437,0.292-0.729,0.584c-0.146,0.146-0.584,0.438-1.313,0.584
			c-0.584,0.292-1.169,0.73-1.461,0.876c-0.438,0.292-0.729,0.73-1.169,1.022c-0.292,0.439-0.585,0.876-0.729,1.607
			c0,0.439,0,0.73,0.146,1.023c0.146,0.438,0.585,0.73,0.876,0.73c0.73,0.292,1.315,0,1.608-0.73
			c0.146-0.292,0.292-0.584,0.438-0.73c0,0,0-0.292,0.146-0.292c0.146-0.292,0.294-0.438,0.585-0.438
			c0.146-0.146,0.292-0.292,0.729-0.584c1.022-0.438,1.9-0.876,2.337-1.169c0.438-0.292,0.878-0.438,1.17-0.876
			c0.438-0.438,0.729-1.022,0.876-1.606c0.293-0.876,0.293-1.607-0.146-2.337c-0.292-0.73-0.729-1.46-1.461-2.191
			c-0.584-0.584-1.46-1.023-2.63-1.314c-1.167-0.292-2.191-0.292-3.067-0.146c-1.168,0.292-1.897,0.73-2.629,1.314
			c-0.583,0.584-1.021,1.315-1.168,2.045c0,0.292,0,0.584,0.146,1.023c0.292,0.292,0.585,0.584,1.021,0.73
			c0.584,0.146,1.168-0.146,1.753-1.023c0.438-0.584,0.876-1.168,1.315-1.46C38.859,7.727,39.59,7.581,40.319,7.872z"/>
		<path fill="#666666" d="M36.229,22.188c0.438,0,0.876,0,1.169-0.146c0.438-0.146,0.729-0.584,0.877-1.168
			c0.146-0.438,0.146-0.876-0.146-1.169c-0.293-0.438-0.584-0.73-1.022-0.876s-0.876,0-1.46,0.146
			c-0.291,0.292-0.585,0.584-0.73,1.023c-0.146,0.584,0,1.168,0.292,1.461C35.354,21.896,35.646,22.042,36.229,22.188z"/>
		<path fill="#666666" d="M18.992,23.648c-0.291,0.584-0.583,1.168-0.291,2.045c0.146,0.876,0.73,1.314,1.461,1.753
			c0.585,0.292,1.315,0.438,2.045,0.292c0.584-0.292,1.314-0.73,1.606-1.314c0.438-0.584,0.438-1.314,0.291-2.191
			c-0.146-0.876-0.583-1.314-1.313-1.607c-0.584-0.438-1.313-0.584-2.044-0.438C19.869,22.479,19.432,22.918,18.992,23.648z"/>
	</g>
</g>
</svg>
