<?xml version="1.0" encoding="utf-8"?>
<!-- Generator: Adobe Illustrator 13.0.0, SVG Export Plug-In . SVG Version: 6.00 Build 14948)  -->
<!DOCTYPE svg PUBLIC "-//W3C//DTD SVG 1.1//EN" "http://www.w3.org/Graphics/SVG/1.1/DTD/svg11.dtd">
<svg version="1.1" id="Layer_1" xmlns="http://www.w3.org/2000/svg" xmlns:xlink="http://www.w3.org/1999/xlink" x="0px" y="0px"
	 width="56.627px" height="50.582px" viewBox="0 0 56.627 50.582" enable-background="new 0 0 56.627 50.582" xml:space="preserve">
<g>
	<g>
		<path fill="#FFBC00" d="M1.854,49.271C0.673,48.354-0.025,46.82,0,45.354l0,0c0.002-1.203,0.379-2.358,1.002-3.434l0,0
			L23.313,3.277c1.032-1.832,2.808-3.27,5.001-3.277l0,0c2.193,0.007,3.967,1.445,5,3.275l0,0l22.314,38.647
			c0.618,1.073,0.996,2.225,0.998,3.43l0,0c0.023,1.469-0.674,3-1.854,3.918l0,0c-1.172,0.936-2.631,1.311-4.146,1.311l0,0H6.001
			v-2.499v-2.5h44.625c0.652-0.001,0.922-0.144,0.998-0.194l0,0c0-0.007,0.002-0.017,0.002-0.033l0,0
			c0.002-0.113-0.048-0.442-0.328-0.932l0,0L28.983,5.775c-0.314-0.544-0.586-0.727-0.669-0.767l0,0
			c-0.017,0.008-0.043,0.022-0.078,0.047l0,0c-0.12,0.08-0.348,0.298-0.591,0.722l0,0L5.329,44.426
			c-0.281,0.484-0.332,0.813-0.327,0.928l0,0C5,45.366,4.999,45.375,4.998,45.381l0,0c0.063,0.047,0.363,0.202,1.004,0.2l0,0v2.5
			v2.501C4.485,50.58,3.028,50.205,1.854,49.271L1.854,49.271z M28.289,4.999L28.289,4.999L28.289,4.999L28.289,4.999z"/>
	</g>
	<g>
		<path fill="#231F20" d="M31.515,13.307h-6.3l0.7,20.701h4.9L31.515,13.307z"/>
		<path fill="#231F20" d="M31.614,40.307c0-0.799-0.199-1.6-0.801-2.199c-0.699-0.6-1.399-0.899-2.399-0.899s-1.9,0.301-2.4,1
			c-0.6,0.5-1,1.301-1,2.101c0,0.899,0.4,1.7,1,2.301c0.5,0.6,1.4,0.899,2.4,0.899s1.7-0.301,2.399-0.899
			C31.415,42.008,31.614,41.207,31.614,40.307z"/>
	</g>
</g>
</svg>
