<?xml version="1.0" encoding="utf-8"?>
<!-- Generator: Adobe Illustrator 13.0.0, SVG Export Plug-In . SVG Version: 6.00 Build 14948)  -->
<!DOCTYPE svg PUBLIC "-//W3C//DTD SVG 1.1//EN" "http://www.w3.org/Graphics/SVG/1.1/DTD/svg11.dtd">
<svg version="1.1" id="Layer_1" xmlns="http://www.w3.org/2000/svg" xmlns:xlink="http://www.w3.org/1999/xlink" x="0px" y="0px"
	 width="72.316px" height="84.602px" viewBox="0 0 72.316 84.602" enable-background="new 0 0 72.316 84.602" xml:space="preserve">
<path fill="#CCCCCC" d="M0.7,34.602c0,3.6,3.4,6.699,10.3,9.199c6.9,2.5,15.2,3.802,25,3.802c9.601,0,18-1.302,24.9-3.802
	c6.8-2.5,10.3-5.6,10.3-9.199c0-3.601-3.5-6.601-10.3-9.101c-6.899-2.5-15.3-3.8-24.9-3.8c-9.8,0-18.1,1.3-25,3.8
	C4.1,28.002,0.7,31.002,0.7,34.602z"/>
<path fill="#999999" d="M46.4,34.802c0-1.5-1-2.699-3.102-3.699c-2.1-1-4.5-1.5-7.398-1.5c-2.8,0-5.3,0.5-7.4,1.5
	c-2,1-3,2.199-3,3.699c0,1.301,1,2.5,3,3.5c1.601,0.801,3.601,1.301,5.8,1.5l1.7-4.5l-1.7,4.5c0.601,0,1.101,0,1.601,0
	c2.898,0,5.3-0.5,7.398-1.5C45.4,37.302,46.4,36.102,46.4,34.802z"/>
<path fill="#666666" d="M56.986,41.409c-0.225-0.506,0.002-1.097,0.509-1.321l0,0c0.957-0.424,1.855-0.725,2.717-1.106l0,0
	c6.775-2.861,9.709-6.303,9.688-9.878l0,0c0.004-0.229-0.072-0.577-0.183-1.105l0,0c-0.105-0.542,0.243-1.067,0.784-1.175l0,0
	c0.542-0.109,1.068,0.243,1.179,0.784l0,0c0.088,0.471,0.214,0.922,0.22,1.497l0,0c-0.022,4.822-3.888,8.78-10.895,11.714l0,0
	c-0.958,0.424-1.858,0.725-2.7,1.099l0,0c-0.134,0.06-0.271,0.087-0.406,0.087l0,0C57.516,42.002,57.151,41.781,56.986,41.409
	L56.986,41.409z"/>
<path fill="#666666" d="M50.401,15.502c-0.002-0.501-0.002-0.898-0.002-1.3l0,0c-0.015-3.423-1.334-6.181-4.142-8.633l0,0
	C43.439,3.224,40,2.006,35.898,2.002l0,0c-1.516,0-2.944,0.189-4.29,0.477l0,0c-0.54,0.117-1.072-0.229-1.188-0.769l0,0
	c-0.116-0.54,0.229-1.071,0.769-1.187l0,0C32.644,0.212,34.217,0,35.898,0l0,0c4.501-0.004,8.462,1.378,11.656,4.045l0,0
	c3.179,2.735,4.859,6.18,4.845,10.157l0,0c0,0.398,0,0.799,0,1.3l0,0h0.002c0,0.553-0.448,1-1,1l0,0
	C50.848,16.502,50.401,16.054,50.401,15.502L50.401,15.502z"/>
<path fill="#666666" d="M24.4,5.203c-0.332-0.442-0.244-1.069,0.198-1.399l0,0c0.437-0.327,0.93-0.627,1.368-0.853l0,0
	c0.383-0.286,0.797-0.599,1.285-0.844l0,0c0.494-0.246,1.096-0.045,1.341,0.448l0,0c0.246,0.493,0.046,1.093-0.448,1.341l0,0
	c-0.28,0.137-0.647,0.402-1.046,0.704l0,0l-0.151,0.094c-0.344,0.17-0.811,0.453-1.146,0.707l0,0c-0.18,0.135-0.391,0.2-0.6,0.2l0,0
	C24.897,5.602,24.597,5.464,24.4,5.203L24.4,5.203z"/>
<path fill="#666666" d="M19.618,15.696c-0.12-0.601-0.118-1.096-0.118-1.495l0,0c-0.006-2.654,0.657-5.12,2.3-7.299l0,0
	c0.332-0.442,0.958-0.532,1.4-0.2l0,0c0.442,0.332,0.532,0.958,0.201,1.399l0,0c-1.359,1.82-1.894,3.755-1.901,6.1l0,0
	c0.002,0.403,0.002,0.706,0.082,1.105l0,0c0.106,0.542-0.244,1.067-0.786,1.177l0,0c-0.065,0.013-0.132,0.02-0.196,0.02l0,0
	C20.13,16.502,19.713,16.172,19.618,15.696L19.618,15.696z"/>
<path fill="#666666" d="M16.716,21.986c-0.102-0.544,0.257-1.066,0.799-1.168l0,0c1.6-0.298,3.221-0.604,4.861-0.809l0,0
	c0.548-0.068,1.047,0.319,1.115,0.868l0,0c0.067,0.548-0.321,1.048-0.868,1.117l0,0c-1.559,0.194-3.141,0.489-4.739,0.79l0,0
	c-0.063,0.012-0.125,0.017-0.187,0.017l0,0C17.226,22.802,16.807,22.466,16.716,21.986L16.716,21.986z"/>
<path fill="#666666" d="M0.965,28.994c-0.548-0.076-0.931-0.579-0.856-1.125l0,0c0.612-4.284,4.479-7.729,10.683-10.38l0,0
	c2.967-1.33,6.15-2.357,9.636-2.971l0,0c0.542-0.097,1.063,0.266,1.158,0.81l0,0c0.095,0.544-0.268,1.063-0.812,1.158l0,0
	c-3.314,0.585-6.332,1.559-9.182,2.835l0,0c-5.981,2.541-9.113,5.695-9.5,8.814l0,0c-0.067,0.502-0.499,0.866-0.99,0.866l0,0
	C1.055,29.002,1.011,29,0.965,28.994L0.965,28.994z"/>
<path fill="#666666" d="M0.268,28.558c-0.308-0.46-0.185-1.082,0.275-1.389l0,0c1.568-1.044,3.517-2.066,5.686-2.997l0,0
	c2.021-0.808,4.258-1.624,6.674-2.253l0,0c0.378-0.068,0.879-0.27,1.5-0.398l0,0c0.54-0.108,1.067,0.244,1.175,0.785l0,0
	c0.111,0.54-0.241,1.066-0.783,1.175l0,0c-0.378,0.072-0.879,0.27-1.442,0.387l0,0c-2.243,0.584-4.403,1.37-6.359,2.152l0,0
	c-2.053,0.879-3.907,1.857-5.338,2.813l0,0c-0.17,0.114-0.364,0.168-0.555,0.168l0,0C0.777,29.001,0.459,28.846,0.268,28.558
	L0.268,28.558z"/>
<path fill="#666666" d="M34.137,40.8c-0.052,0-0.09,0-0.237,0l0,0l-0.072-0.002c-2.901-0.206-5.343-0.838-7.563-1.895l0,0
	C23.615,37.651,22,35.834,22,33.601l0,0c-0.004-2.231,1.625-4.064,4.253-5.194l0,0c2.775-1.388,6.033-2.005,9.646-2.005l0,0
	c3.613,0,6.871,0.616,9.502,1.985l0,0c2.656,1.151,4.387,2.938,4.396,5.214l0,0c-0.015,2.278-1.731,4.048-4.338,5.288l0,0
	c-2.712,1.405-5.97,1.908-9.562,1.91l0,0c-0.601,0-1.102,0-1.7,0l0,0v0.002C34.179,40.802,34.158,40.802,34.137,40.8L34.137,40.8z
	 M34.152,38.802c0.016,0,0.032-0.001,0.047-0.001l0,0c0.599,0,1.1,0,1.7,0l0,0c3.408,0.003,6.351-0.492,8.667-1.701l0,0
	c2.364-1.147,3.247-2.377,3.231-3.498l0,0c0.011-1.123-0.856-2.338-3.262-3.412l0,0c-2.307-1.203-5.251-1.79-8.638-1.788l0,0
	c-3.387,0-6.329,0.583-8.798,1.813l0,0c-2.328,1.052-3.099,2.218-3.103,3.386l0,0c0,1.166,0.784,2.349,3.131,3.498l0,0
	c1.97,0.936,4.113,1.503,6.785,1.701l0,0C34.064,38.801,34.094,38.801,34.152,38.802L34.152,38.802z"/>
<path fill="#666666" d="M30.13,45.099c-7.278-0.507-13.79-1.82-19.323-4.278l0,0C3.881,37.879,0.021,33.922,0,29.101l0,0
	c0.01-0.322-0.025-0.832,0.15-1.414l0,0c0.174-0.526,0.739-0.81,1.264-0.636l0,0c0.524,0.175,0.81,0.739,0.635,1.265l0,0
	C2.027,28.333,1.989,28.822,2,29.101l0,0c-0.021,3.578,2.919,7.022,9.606,9.886l0,0c5.253,2.337,11.542,3.623,18.663,4.117l0,0
	h0.002c0.549,0.039,0.964,0.516,0.928,1.066l0,0c-0.037,0.527-0.476,0.931-0.996,0.931l0,0
	C30.178,45.102,30.154,45.101,30.13,45.099L30.13,45.099z"/>
<path fill="#666666" d="M70.144,28.634c-1.404-0.938-3.048-1.719-4.935-2.609l0,0c-1.764-0.686-3.524-1.273-5.497-1.865l0,0
	c-0.528-0.158-0.83-0.716-0.672-1.245l0,0c0.159-0.529,0.717-0.83,1.246-0.671l0,0c2.018,0.607,3.843,1.214,5.674,1.926l0,0
	l0.066,0.029c1.896,0.899,3.639,1.715,5.226,2.771l0,0v0.003c0.459,0.304,0.585,0.926,0.278,1.387l0,0
	c-0.194,0.289-0.511,0.443-0.833,0.443l0,0C70.507,28.802,70.315,28.748,70.144,28.634L70.144,28.634z"/>
<path fill="#666666" d="M55.868,23.075c-2.051-0.489-4.42-0.885-6.813-1.184l0,0c-4.047-0.595-8.399-0.891-12.955-0.891l0,0
	c-3.48,0-6.739,0.102-9.877,0.493l0,0c-0.549,0.068-1.049-0.322-1.116-0.869l0,0c-0.07-0.548,0.321-1.048,0.869-1.118l0,0
	C29.239,19.1,32.58,19,36.1,19l0,0c4.643,0,9.09,0.305,13.223,0.908l0,0c2.428,0.304,4.857,0.708,7.007,1.22l0,0h0.003
	c0.535,0.127,0.869,0.666,0.738,1.204l0,0c-0.108,0.46-0.521,0.77-0.972,0.77l0,0C56.023,23.103,55.946,23.094,55.868,23.075
	L55.868,23.075z"/>
<path fill="#666666" d="M69.711,27.96c-0.474-3.128-3.607-6.093-9.521-8.646l0,0c-2.832-1.269-5.858-2.246-8.976-2.828l0,0
	c-0.543-0.104-0.898-0.625-0.799-1.167l0,0c0.103-0.543,0.623-0.901,1.167-0.799l0,0c3.283,0.615,6.457,1.639,9.413,2.964l0,0
	c6.1,2.65,9.964,5.887,10.688,10.158l0,0h0.002c0.087,0.545-0.284,1.058-0.829,1.146l0,0c-0.056,0.009-0.108,0.013-0.161,0.013l0,0
	C70.216,28.801,69.791,28.452,69.711,27.96L69.711,27.96z"/>
<path fill="#666666" d="M35.899,40.801c-0.501,0-1,0-1.602,0l0,0c-0.029,0-0.061-0.001-0.09-0.004l0,0l0,0l0,0h-0.001l0,0
	c-0.005,0-0.009-0.001-0.014-0.001l0,0c-2.289-0.21-4.396-0.729-6.143-1.6l0,0c-2.13-1.057-3.533-2.516-3.552-4.395l0,0
	c-0.006-2.013,1.416-3.554,3.571-4.603l0,0c2.261-1.078,4.911-1.597,7.829-1.599l0,0c3.013,0,5.578,0.524,7.83,1.599l0,0
	c2.235,1.032,3.68,2.586,3.671,4.603l0,0c-0.018,1.883-1.438,3.352-3.671,4.402l0,0c-2.248,1.071-4.808,1.597-7.813,1.597l0,0
	C35.911,40.801,35.905,40.801,35.899,40.801L35.899,40.801z M35.899,38.802c2.787-0.002,5.021-0.477,6.969-1.403l0,0
	c1.97-0.95,2.547-1.88,2.53-2.597l0,0c-0.008-0.984-0.566-1.83-2.53-2.797l0,0c-1.948-0.927-4.183-1.4-6.969-1.402l0,0
	c-2.683,0-5.032,0.479-6.953,1.393l0,0c-1.863,0.96-2.44,1.818-2.446,2.809l0,0c-0.019,0.722,0.577,1.661,2.446,2.604l0,0
	c1.441,0.723,3.313,1.202,5.4,1.396l0,0C34.927,38.802,35.412,38.802,35.899,38.802L35.899,38.802z"/>
<path fill="#666666" d="M33.946,40.736c-0.517-0.195-0.777-0.771-0.582-1.288l0,0l1.699-4.501c0.194-0.516,0.771-0.777,1.289-0.582
	l0,0c0.517,0.195,0.776,0.773,0.582,1.29l0,0l-1.699,4.499c-0.152,0.4-0.532,0.646-0.937,0.646l0,0
	C34.183,40.801,34.063,40.78,33.946,40.736L33.946,40.736z"/>
<path fill="#666666" d="M34.2,40.801c-0.553,0-1-0.446-1-1l0,0c0-0.553,0.447-1,1-1l0,0h0.1c0.552,0,1,0.447,1,1l0,0
	c0,0.554-0.448,1-1,1l0,0H34.2L34.2,40.801z"/>
<path fill="#666666" d="M29.959,47.177c-0.69-0.68-0.883-1.596-0.858-2.273l0,0c-0.004-0.282,0-0.685,0.151-1.117l0,0
	c0.174-0.523,0.74-0.807,1.265-0.633l0,0c0.524,0.176,0.805,0.742,0.631,1.266l0,0c-0.049,0.166-0.045,0.164-0.047,0.483l0,0
	c0.021,0.511,0.024,0.576,0.308,0.892l0,0l0.074,0.082c0.164,0.199,0.391,0.315,0.918,0.326l0,0
	c0.225-0.002,0.496-0.082,0.877-0.381l0,0c0.43-0.346,1.06-0.275,1.404,0.154l0,0c0.346,0.434,0.275,1.063-0.156,1.405l0,0
	c-0.621,0.5-1.352,0.822-2.125,0.82l0,0c-0.016,0-0.03,0-0.045,0l0,0C31.513,48.202,30.585,47.926,29.959,47.177L29.959,47.177z"/>
<path fill="#666666" d="M29.883,45.05c-0.524-0.174-0.808-0.74-0.633-1.264l0,0c0.159-0.456,0.397-0.823,0.684-1.128l0,0
	c0.635-0.787,1.6-1.066,2.466-1.056l0,0c0.215,0.015,0.597-0.045,1.146,0.205l0,0c0.494,0.246,0.695,0.846,0.447,1.342l0,0
	c-0.246,0.494-0.846,0.692-1.34,0.447l0,0l-0.004,0.014c-0.06-0.008-0.151-0.008-0.25-0.008l0,0c-0.528,0.01-0.754,0.125-0.92,0.323
	l0,0l-0.071,0.082c-0.09,0.082-0.228,0.298-0.26,0.41l0,0c-0.141,0.42-0.529,0.687-0.948,0.687l0,0
	C30.095,45.102,29.988,45.085,29.883,45.05L29.883,45.05z"/>
<path fill="#666666" d="M33.628,44.542c-0.028-0.123-0.078-0.243-0.121-0.318l0,0c-0.045-0.08-0.062-0.091-0.063-0.091l0,0
	l-0.149-0.123c-0.332-0.323-0.297-0.293-0.437-0.338l0,0c-0.537-0.133-0.863-0.676-0.729-1.213l0,0
	c0.134-0.535,0.677-0.86,1.211-0.728l0,0c0.627,0.146,1.054,0.545,1.324,0.82l0,0c0.55,0.438,0.766,0.997,0.903,1.508l0,0
	l0.002,0.002c0.131,0.535-0.195,1.078-0.729,1.211l0,0c-0.081,0.02-0.161,0.028-0.241,0.028l0,0
	C34.15,45.302,33.741,44.997,33.628,44.542L33.628,44.542z"/>
<path fill="#666666" d="M32.899,46.601c0.006-0.084-0.006-0.23,0.119-0.497l0,0c0.04-0.117,0.152-0.252,0.302-0.364l0,0
	c0.212-0.305,0.271-0.512,0.28-0.837l0,0c0-0.2,0-0.401,0-0.6l0,0c0-0.555,0.446-1,1-1l0,0c0.551,0,1,0.445,1,1l0,0
	c0,0.198,0,0.399,0,0.6l0,0c0.008,0.828-0.313,1.607-0.82,2.224l0,0c-0.038,0.048-0.08,0.092-0.125,0.131l0,0
	c-0.184,0.211-0.454,0.346-0.756,0.346l0,0C33.348,47.602,32.899,47.155,32.899,46.601L32.899,46.601z"/>
<path fill="#666666" d="M33.599,44.301c0-0.552,0.447-1,1-1l0,0c0.501,0,0.9,0,1.302,0l0,0c4.959,0,9.491-0.298,13.588-1.176l0,0
	c0.541-0.115,1.072,0.229,1.188,0.769l0,0c0.117,0.54-0.229,1.071-0.768,1.187l0,0c-4.302,0.921-8.971,1.22-14.009,1.22l0,0
	c-0.4,0-0.801,0-1.302,0l0,0v0.002C34.046,45.302,33.599,44.853,33.599,44.301L33.599,44.301z"/>
<path fill="#666666" d="M32.744,43.635c-0.515-0.193-0.775-0.771-0.58-1.288l0,0l1.102-2.9c0.196-0.516,0.771-0.776,1.289-0.58l0,0
	c0.517,0.194,0.776,0.772,0.582,1.289l0,0l-1.101,2.9c-0.152,0.398-0.531,0.646-0.935,0.646l0,0
	C32.981,43.701,32.861,43.68,32.744,43.635L32.744,43.635z"/>
<path fill="#666666" d="M34.793,60.009c-0.688-0.674-1.012-1.627-1.001-2.608l0,0c0.002-0.674,0.127-1.383,0.359-2.215l0,0
	c0.563-1.689,1.664-3.313,3.242-4.892l0,0c0.389-0.391,1.022-0.391,1.413,0l0,0c0.39,0.393,0.39,1.023,0,1.416l0,0
	c-1.425,1.422-2.323,2.8-2.743,4.061l0,0c-0.188,0.667-0.271,1.215-0.271,1.63l0,0c0.013,0.625,0.145,0.91,0.462,1.244l0,0
	c0.175,0.194,0.432,0.335,0.995,0.344l0,0c0.412,0,0.967-0.103,1.668-0.346l0,0c1.479-0.432,2.963-1.429,4.5-2.869l0,0
	c0.402-0.379,1.033-0.357,1.411,0.047l0,0c0.378,0.402,0.356,1.033-0.046,1.411l0,0c-1.661,1.558-3.379,2.762-5.252,3.314l0,0
	c-0.806,0.281-1.563,0.439-2.281,0.441l0,0c-0.012,0-0.022,0-0.035,0l0,0C36.281,60.987,35.362,60.671,34.793,60.009L34.793,60.009z
	"/>
<path fill="#666666" d="M43.391,57.21c-0.391-0.392-0.391-1.024,0-1.416l0,0c1.407-1.403,2.412-2.981,2.85-4.475l0,0l0.021-0.067
	c0.208-0.556,0.292-1.04,0.292-1.437l0,0c-0.005-0.588-0.168-0.979-0.361-1.207l0,0c-0.263-0.255-0.605-0.406-1.239-0.412l0,0
	c-0.423-0.003-0.955,0.082-1.557,0.26l0,0c-1.349,0.418-2.791,1.374-4.379,2.941l0,0c-0.154,0.354-0.507,0.604-0.918,0.604l0,0
	c-0.556,0-1.001-0.446-1.001-1l0,0c0.077-0.742,0.36-0.813,0.394-0.905l0,0c1.769-1.767,3.486-2.978,5.324-3.554l0,0
	c0.751-0.221,1.461-0.346,2.137-0.346l0,0c0.989-0.008,1.958,0.296,2.699,1.047l0,0c0.593,0.676,0.902,1.584,0.9,2.572l0,0
	c0,0.665-0.136,1.37-0.404,2.104l0,0c-0.568,1.896-1.76,3.704-3.342,5.291l0,0c-0.195,0.195-0.451,0.293-0.707,0.293l0,0
	C43.843,57.503,43.587,57.405,43.391,57.21L43.391,57.21z"/>
<path fill="#666666" d="M43.391,57.21l-2.698-2.703c-0.393-0.389-0.393-1.022,0-1.413l0,0c0.39-0.39,1.023-0.39,1.413,0l0,0
	l2.701,2.7c0.389,0.393,0.389,1.023,0,1.416l0,0c-0.195,0.194-0.451,0.292-0.707,0.292l0,0
	C43.843,57.502,43.586,57.404,43.391,57.21L43.391,57.21z"/>
<path fill="#666666" d="M37.376,51.691l-4.201-4.399c-0.381-0.399-0.366-1.033,0.033-1.415l0,0c0.399-0.381,1.033-0.363,1.415,0.033
	l0,0l4.199,4.401c0.382,0.399,0.366,1.03-0.033,1.412l0,0C38.595,51.909,38.347,52,38.099,52l0,0
	C37.835,52.001,37.573,51.897,37.376,51.691L37.376,51.691z"/>
<path fill="#666666" d="M51.928,42.744c-0.134-0.536,0.19-1.079,0.728-1.212l0,0c0.748-0.187,1.66-0.491,2.628-0.707l0,0
	c0.538-0.119,1.072,0.22,1.191,0.76l0,0c0.121,0.538-0.221,1.072-0.759,1.191l0,0c-0.834,0.185-1.723,0.479-2.573,0.694l0,0
	c-0.082,0.021-0.164,0.03-0.246,0.03l0,0C52.45,43.502,52.043,43.198,51.928,42.744L51.928,42.744z"/>
<path fill="#666666" d="M19.622,15.715c-0.117-0.54,0.227-1.073,0.767-1.19l0,0c4.682-1.018,9.853-1.521,15.512-1.523l0,0
	c5.757,0,10.931,0.507,15.708,1.523l0,0c0.541,0.115,0.884,0.645,0.771,1.187l0,0c-0.116,0.54-0.646,0.883-1.188,0.769l0,0
	c-4.623-0.981-9.651-1.478-15.292-1.478l0,0C30.359,15,25.33,15.498,20.813,16.479l0,0c-0.072,0.016-0.145,0.022-0.214,0.022l0,0
	C20.138,16.502,19.723,16.184,19.622,15.715L19.622,15.715z"/>
<path fill="#666666" d="M46.993,64.508c-0.744-0.747-0.994-1.728-0.992-2.605l0,0c0.006-0.807,0.236-1.667,0.795-2.396l0,0
	c0.005-0.006,0.011-0.012,0.016-0.018l0,0c0.003-0.004,0.005-0.008,0.008-0.011l0,0c0.05-0.063,0.105-0.117,0.167-0.165l0,0
	c0.742-0.619,1.583-0.895,2.373-1l0,0h0.283c0.78,0.114,1.713,0.342,2.465,1.083l0,0l0.074,0.082
	c0.521,0.669,0.902,1.497,0.92,2.425l0,0c-0.004,0.971-0.396,1.889-1.063,2.575l0,0c-0.701,0.808-1.683,1.02-2.537,1.024l0,0
	c-0.018,0-0.035,0.001-0.053,0.001l0,0C48.581,65.503,47.667,65.198,46.993,64.508L46.993,64.508z M47.999,61.901
	c0.002,0.52,0.15,0.94,0.408,1.19l0,0c0.313,0.299,0.576,0.396,1.094,0.408l0,0c0.527,0.007,0.922-0.174,1.019-0.324l0,0
	l0.073-0.084c0.314-0.311,0.513-0.777,0.509-1.19l0,0c0.014-0.26-0.185-0.795-0.443-1.128l0,0c-0.234-0.22-0.635-0.374-1.151-0.46
	l0,0c-0.486,0.086-0.808,0.204-1.187,0.494l0,0C48.125,61.088,47.993,61.554,47.999,61.901L47.999,61.901z"/>
<path fill="#666666" d="M46.881,60.8l-3.5-3.601c-0.383-0.396-0.375-1.03,0.021-1.414l0,0c0.396-0.386,1.027-0.376,1.414,0.02l0,0
	l3.499,3.6c0.384,0.396,0.376,1.031-0.021,1.414l0,0c-0.193,0.188-0.445,0.285-0.696,0.285l0,0
	C47.337,61.103,47.078,61.001,46.881,60.8L46.881,60.8z"/>
<g>
	<path fill="#2B95FF" d="M48.3,78.301c-0.828,0-1.501-0.671-1.501-1.499l0,0c0-0.829,0.673-1.5,1.501-1.5l0,0
		c1.005,0,1.779-0.006,2.604-0.171l0,0l0.076-0.015c3.092-0.461,5.642-1.779,7.856-4.076l0,0c1.406-1.407,2.484-2.856,3.167-4.396
		l0,0c0.725-1.809,1.096-3.811,1.096-6.044l0,0c0-0.828,0.67-1.499,1.499-1.499l0,0c0.828,0,1.499,0.671,1.499,1.499l0,0
		c0,2.566-0.431,4.966-1.328,7.21l0,0c-0.894,2.01-2.219,3.761-3.789,5.329l0,0c-2.591,2.713-5.823,4.392-9.51,4.938l0,0
		c-1.106,0.219-2.08,0.224-3.021,0.224l0,0C48.4,78.301,48.35,78.301,48.3,78.301L48.3,78.301z"/>
	<path fill="#2B95FF" d="M46.699,70.501c0-0.828,0.672-1.5,1.5-1.5l0,0c0.882,0.002,1.629-0.151,2.603-0.35l0,0
		c1.259-0.43,2.394-1.086,3.384-2.058l0,0c0.004-0.008,0.01-0.016,0.016-0.024l0,0c0.059-0.076,0.122-0.201,0.282-0.368l0,0
		c1.462-1.652,2.104-3.418,2.116-5.599l0,0c0-0.83,0.673-1.5,1.501-1.5l0,0c0.828,0,1.501,0.67,1.501,1.5l0,0
		c0.012,2.782-0.922,5.387-2.866,7.576l0,0c-0.007,0.009-0.021,0.026-0.036,0.053l0,0c-0.058,0.078-0.121,0.206-0.338,0.43l0,0
		c-1.377,1.379-2.998,2.303-4.687,2.863l0,0l-0.181,0.047c-0.974,0.193-2.006,0.43-3.295,0.43l0,0
		C47.371,72.001,46.699,71.331,46.699,70.501L46.699,70.501z"/>
	<path fill="#2B95FF" d="M48.2,84.601c-0.828,0-1.501-0.67-1.501-1.498l0,0c0-0.83,0.673-1.5,1.501-1.5l0,0
		c1,0,1.949-0.002,2.851-0.095l0,0c4.647-0.471,8.69-2.481,12.188-5.969l0,0c2.636-2.639,4.282-5.485,5.219-8.751l0,0l0.02-0.062
		c0.563-1.694,0.84-3.351,0.842-5.234l0,0c0-0.271-0.008-0.55-0.018-0.838l0,0c-0.03-0.828,0.617-1.523,1.445-1.553l0,0
		c0.827-0.03,1.521,0.618,1.552,1.444l0,0c0.012,0.313,0.02,0.628,0.02,0.945l0,0c0.002,2.18-0.331,4.193-0.988,6.164l0,0
		c-1.064,3.717-3.013,7.055-5.969,10.005l0,0c-3.903,3.913-8.658,6.303-14.011,6.832l0,0c-1.06,0.104-2.072,0.106-3.039,0.106l0,0
		C48.272,84.601,48.236,84.601,48.2,84.601L48.2,84.601z"/>
</g>
</svg>
