<?xml version="1.0" encoding="utf-8"?>
<!-- Generator: Adobe Illustrator 13.0.0, SVG Export Plug-In . SVG Version: 6.00 Build 14948)  -->
<!DOCTYPE svg PUBLIC "-//W3C//DTD SVG 1.1//EN" "http://www.w3.org/Graphics/SVG/1.1/DTD/svg11.dtd">
<svg version="1.1" id="Layer_1" xmlns="http://www.w3.org/2000/svg" xmlns:xlink="http://www.w3.org/1999/xlink" x="0px" y="0px"
	 width="51px" height="51px" viewBox="0 0 51 51" enable-background="new 0 0 51 51" xml:space="preserve">
<g>
	<g>
		<path fill="#B01919" d="M25.501,51c-6.972,0.029-13.184-2.5-18.066-7.533l0,0C2.591,38.65-0.019,32.411,0,25.5l0,0
			c-0.021-7.002,2.593-13.243,7.454-18.187l0,0c4.307-4.243,9.596-6.696,15.547-7.211l0,0V0h2.331c0.056,0,0.112,0,0.169,0l0,0
			c0.057,0,0.111,0,0.168,0l0,0H28v0.103c5.953,0.516,11.244,2.971,15.569,7.229l0,0C48.521,12.252,51.023,18.529,51,25.5l0,0
			c0.022,6.879-2.477,13.154-7.412,17.948l0,0C38.713,48.473,32.545,51,25.621,51l0,0C25.581,51,25.541,51,25.501,51L25.501,51z
			 M10.99,10.85C7.012,14.945,5.021,19.704,5,25.5l0,0c0.021,5.688,2.012,10.45,5.99,14.452l0,0
			c4.096,4.146,8.682,6.019,14.511,6.049l0,0c5.828-0.03,10.417-1.903,14.553-6.088l0,0c4.026-3.966,5.924-8.69,5.946-14.413l0,0
			c-0.022-5.828-1.92-10.551-5.946-14.611l0,0C35.956,6.915,31.327,5.025,25.501,5l0,0C19.675,5.025,15.048,6.915,10.99,10.85
			L10.99,10.85z"/>
	</g>
	<g>
		<polygon fill="#B01919" points="23.002,25.936 23.002,6.899 28,6.899 27.999,23.861 35.269,31.131 35.271,31.133 31.733,34.667 		
			"/>
	</g>
</g>
</svg>
