<?xml version="1.0" encoding="utf-8"?>
<!-- Generator: Adobe Illustrator 13.0.0, SVG Export Plug-In . SVG Version: 6.00 Build 14948)  -->
<!DOCTYPE svg PUBLIC "-//W3C//DTD SVG 1.1//EN" "http://www.w3.org/Graphics/SVG/1.1/DTD/svg11.dtd">
<svg version="1.1" id="Layer_1" xmlns="http://www.w3.org/2000/svg" xmlns:xlink="http://www.w3.org/1999/xlink" x="0px" y="0px"
	 width="51.1px" height="51px" viewBox="0 0 51.1 51" enable-background="new 0 0 51.1 51" xml:space="preserve">
<g>
	<g>
		<path fill="#2E6EAC" d="M25.6,51c-7.005,0.024-13.183-2.608-18.067-7.533l0,0C2.619,38.598-0.029,32.504,0,25.501l0,0
			C-0.021,19.338,2.005,13.75,5.855,9.156l0,0L5.762,9.06l1.789-1.748c0.033-0.033,0.066-0.066,0.1-0.099l0,0l1.648-1.648
			l0.092,0.092C13.963,1.913,19.473-0.022,25.6,0l0,0c6.976-0.03,13.063,2.495,17.968,7.332l0,0
			c4.937,4.904,7.556,11.166,7.532,18.169l0,0c0.026,7.003-2.621,13.097-7.532,17.966l0,0C38.723,48.353,32.672,51,25.715,51l0,0
			C25.677,51,25.638,51,25.6,51L25.6,51z M4.999,25.501c0.029,5.791,1.979,10.3,6.067,14.431l0,0
			C15.181,44.008,19.802,45.975,25.6,46l0,0c5.793-0.03,10.302-1.979,14.43-6.068l0,0c4.091-4.131,6.041-8.641,6.068-14.431l0,0
			c-0.022-5.8-2.004-10.538-6.047-14.615l0,0C35.935,6.903,31.424,5.03,25.6,5l0,0c-5.827,0.025-10.455,1.915-14.552,5.889l0,0
			l-0.053,0.051C6.98,15.019,5.021,19.736,4.999,25.501L4.999,25.501z"/>
	</g>
	<g>
		<path fill="#2E6EAC" d="M20.299,19.201l-0.3,2c-1.2,0-2.3,0.301-3.4,0.9l-1.3-1.6l-2,1.6l1.2,1.6c-0.8,0.9-1.4,1.9-1.7,3l-2-0.301
			l-0.4,2.602l2,0.199c0,1.301,0.301,2.399,0.9,3.5l-1.6,1.199l1.5,2.102l1.6-1.301c0.9,0.899,2,1.5,3.1,1.899l-0.3,2l2.601,0.3
			l0.3-2c1.2-0.102,2.3-0.3,3.3-0.898l1.3,1.6l2.101-1.5l-1.2-1.7c0.8-0.8,1.398-1.8,1.8-3l2,0.2l0.301-2.5l-2-0.301
			c0-1.199-0.399-2.399-0.899-3.399l1.6-1.3l-1.6-2l-1.601,1.3c-0.8-0.899-1.899-1.5-3-1.8l0.2-2L20.299,19.201z M16.2,32.101
			c-0.9-1.2-1.2-2.399-1-3.7c0.1-1.398,0.8-2.5,2-3.399c1.1-0.9,2.399-1.101,3.699-1c1.4,0.199,2.4,0.899,3.301,1.899
			c0.899,1.2,1.199,2.5,1,3.801c-0.101,1.399-0.9,2.5-2,3.399c-1,0.8-2.301,1.101-3.7,1C18.2,33.901,17.1,33.202,16.2,32.101z"/>
		<path fill="#2E6EAC" d="M22.2,29.101c0-0.601-0.2-1-0.601-1.5c-0.3-0.302-0.8-0.5-1.399-0.5c-0.5,0-1,0.198-1.4,0.5
			c-0.3,0.5-0.5,0.899-0.5,1.5c0,0.5,0.2,1,0.5,1.3c0.4,0.398,0.9,0.602,1.4,0.602c0.6,0,1.1-0.201,1.399-0.602
			C22,30.101,22.2,29.601,22.2,29.101z"/>
		<path fill="#2E6EAC" d="M25.799,18.701v3.2h3c0.2,0.5,0.5,1,0.9,1.5l-1.4,2.5l2.7,1.602l1.398-2.602
			c0.302,0.101,0.602,0.101,0.9,0.101c0.301,0,0.6,0,0.9-0.101l1.5,2.602l2.6-1.602l-1.4-2.5c0.4-0.5,0.701-1,0.9-1.5h2.9v-3.2h-2.9
			c-0.199-0.6-0.5-1.1-0.9-1.5l1.4-2.6l-2.6-1.5l-1.5,2.5c-0.302,0-0.601-0.1-0.9-0.1s-0.6,0.1-0.9,0.1L31,13.101l-2.7,1.5l1.4,2.6
			c-0.4,0.4-0.7,0.9-0.9,1.5H25.799z M31.7,18.701c0.5-0.5,1-0.699,1.6-0.699s1.1,0.199,1.5,0.699c0.5,0.4,0.7,0.9,0.7,1.5
			c0,0.7-0.2,1.2-0.7,1.7c-0.4,0.399-0.9,0.601-1.5,0.601s-1.1-0.201-1.6-0.601c-0.4-0.5-0.601-1-0.601-1.7
			C31.1,19.601,31.299,19.101,31.7,18.701z"/>
	</g>
</g>
</svg>
