<?xml version="1.0" encoding="utf-8"?>
<!-- Generator: Adobe Illustrator 13.0.0, SVG Export Plug-In . SVG Version: 6.00 Build 14948)  -->
<!DOCTYPE svg PUBLIC "-//W3C//DTD SVG 1.1//EN" "http://www.w3.org/Graphics/SVG/1.1/DTD/svg11.dtd">
<svg version="1.1" id="Layer_1" xmlns="http://www.w3.org/2000/svg" xmlns:xlink="http://www.w3.org/1999/xlink" x="0px" y="0px"
	 width="15.898px" height="15.9px" viewBox="0 0 15.898 15.9" enable-background="new 0 0 15.898 15.9" xml:space="preserve">
<g>
	<path id="Path_99" fill="#FFFFFF" d="M15.899,14.5l-3.3-3.3C13.519,9.993,14.011,8.517,14,7c0.022-3.842-3.072-6.976-6.914-7
		C7.058,0,7.028,0,7,0C3.157-0.023,0.023,3.071,0,6.914C0,6.942,0,6.972,0,7c-0.024,3.843,3.07,6.978,6.913,7
		C6.942,14.001,6.971,14.001,7,14c1.517,0.011,2.993-0.48,4.2-1.398l3.3,3.3L15.899,14.5z M2,7c-0.027-2.732,2.167-4.973,4.9-5
		C6.935,2,6.967,2,7,2c2.733-0.025,4.973,2.167,5,4.901C12,6.935,12,6.968,12,7c0.026,2.734-2.168,4.975-4.901,5
		C7.065,12.001,7.032,12.001,7,12c-2.734,0.027-4.974-2.167-5-4.9C1.999,7.065,1.999,7.033,2,7z"/>
</g>
</svg>
